:SAMPLES-PER-SECOND 30
:FULLY-SPECIFIED
:DEGREES
542
root  -16.0182 36.5719 1.4305 -31.447 -82.1766 19.8875
RightUpLeg  -15.1357 -45.2267 -26.3172
RightLeg  64.3026 11.2097 23.4085
RightFoot  12.6996 -1.90306 9.26971
RightToes  6.35927e-011 1.30204e-014 -6.03759e-014
Spine  24.188 -0.346505 0.298114
Spine1  -1.89573 -0.111128 1.16197
HEad  -15.7187 0.142146 -0.847888
LeftShoulder1  0.677356 -0.364679 -10.1801
LeftArm  -11.7743 26.5601 -24.1201
LeftForeArm  174.197 -67.6847 -156.747
LeftHand  -0.459003 0.399319 10.7121
RightShoulder  0.390175 -1.34123 10.9847
RightArm  -8.87097 -36.426 19.8397
RightForeArm  166.628 60.1131 162.445
RightHand  -0.475607 -1.75701 -15.0489
LeftUpLeg  -38.0689 57.1865 20.4783
LeftLeg  92.5868 -0.710678 5.31911
LeftFoot  19.2833 8.17887 -29.7389
LeftToes  7.40077e-010 7.2695e-011 -6.03601e-011
543
root  -15.7797 36.6741 1.38502 -29.9677 -81.2931 19.087
RightUpLeg  -15.7246 -40.2985 -22.5141
RightLeg  61.137 8.61575 16.0413
RightFoot  4.50512 -1.18065 8.76804
RightToes  6.35927e-011 1.30204e-014 -6.03759e-014
Spine  22.827 -0.215293 0.27605
Spine1  -0.837881 0.148008 0.789022
HEad  -15.605 -1.16823 -0.968877
LeftShoulder1  0.844019 -0.870257 -12.188
LeftArm  -12.9107 27.0732 -30.3602
LeftForeArm  173.95 -70.4935 -153.21
LeftHand  -0.472523 0.0906974 10.4105
RightShoulder  0.419866 -1.42411 13.341
RightArm  -10.9315 -38.5107 27.8522
RightForeArm  166.78 62.0292 161.04
RightHand  -0.51143 -1.7828 -16.2955
LeftUpLeg  -33.5882 52.3517 21.0497
LeftLeg  90.131 -0.277292 -0.275068
LeftFoot  17.3926 7.54973 -29.2931
LeftToes  7.40077e-010 7.2695e-011 -6.03601e-011
544
root  -15.4507 36.7387 1.3383 -31.4894 -81.4004 21.3224
RightUpLeg  -17.3213 -28.5459 -16.7275
RightLeg  57.1208 3.07307 4.7388
RightFoot  -3.19807 -0.787856 10.8792
RightToes  6.35927e-011 1.30204e-014 -6.03759e-014
Spine  22.0582 0.0317358 -0.710656
Spine1  -0.33764 0.232469 0.713931
HEad  -15.1593 -0.908275 -1.07056
LeftShoulder1  0.9705 -0.938919 -15.0079
LeftArm  -15.1516 28.2827 -38.3168
LeftForeArm  172.457 -73.2176 -148.538
LeftHand  -0.532631 -0.242126 11.0632
RightShoulder  0.52503 -1.13469 15.5454
RightArm  -12.9714 -37.9885 37.8018
RightForeArm  164.281 66.4146 156.886
RightHand  -0.612044 -1.41639 -17.7362
LeftUpLeg  -27.9036 45.1344 20.3439
LeftLeg  83.9618 -0.382715 -2.07091
LeftFoot  16.6276 6.25639 -25.2488
LeftToes  7.40077e-010 7.2695e-011 -6.03601e-011
545
root  -15.0945 36.7815 1.30119 -34.5446 -80.9372 24.5438
RightUpLeg  -17.7056 -12.5159 -12.2188
RightLeg  54.7043 -5.80133 -9.18153
RightFoot  -6.69415 -0.645094 14.4169
RightToes  6.35927e-011 1.30204e-014 -6.03759e-014
Spine  22.3222 0.295904 -3.79744
Spine1  -0.556242 -0.459702 1.84777
HEad  -14.6968 0.442669 -1.44241
LeftShoulder1  1.03496 -0.771964 -17.5518
LeftArm  -16.9498 29.6228 -46.5194
LeftForeArm  171.005 -75.1461 -144.214
LeftHand  -0.618072 -1.30905 10.8894
RightShoulder  0.614692 -0.869904 16.8421
RightArm  -12.973 -36.2754 46.0412
RightForeArm  162.363 70.0179 152.418
RightHand  -0.752562 -0.67716 -18.5113
LeftUpLeg  -22.0533 34.4464 17.0979
LeftLeg  74.7894 -0.280669 -0.093509
LeftFoot  17.7515 5.47851 -21.2679
LeftToes  7.40077e-010 7.2695e-011 -6.03601e-011
546
root  -14.7874 36.6695 1.33382 -37.1281 -79.0949 26.6102
RightUpLeg  -16.9582 1.54178 -9.59775
RightLeg  56.1188 -15.3186 -23.4168
RightFoot  -6.66784 -0.657966 14.9583
RightToes  6.35927e-011 1.30204e-014 -6.03759e-014
Spine  22.758 0.258688 -7.94533
Spine1  -0.372921 -1.88199 2.7798
HEad  -15.1999 1.90732 -1.73116
LeftShoulder1  1.07934 -0.752694 -18.7962
LeftArm  -15.356 29.6363 -51.9965
LeftForeArm  173.75 -75.0898 -144.748
LeftHand  -0.606147 -2.27231 9.3725
RightShoulder  0.619665 -0.883191 17.1682
RightArm  -10.9056 -35.7166 50.9291
RightForeArm  166.966 69.8586 153.117
RightHand  -0.739691 -0.35693 -16.963
LeftUpLeg  -16.0657 20.6346 11.2974
LeftLeg  65.7645 1.28013 3.78617
LeftFoot  12.0745 4.55786 -22.4075
LeftToes  7.40077e-010 7.2695e-011 -6.03601e-011
